<svg width="512" height="512" viewBox="0 0 512 512" fill="none" xmlns="http://www.w3.org/2000/svg">
<g clip-path="url(#clip0)">
<path d="M317.611 256L220.389 199.869V312.131L317.611 256Z" fill="#FF0037"/>
<path d="M220.389 255.905V312.131L317.611 256L220.389 255.905Z" fill="#D30F0F"/>
<path d="M154.528 378.437C109.849 378.437 73.5 342.088 73.5 297.409V214.591C73.5 169.912 109.849 133.563 154.528 133.563H228.375L189.236 94.423L217.52 66.139L324.943 173.563H154.528C131.905 173.563 113.5 191.968 113.5 214.591V297.409C113.5 320.032 131.905 338.437 154.528 338.437V378.437Z" fill="white"/>
<path d="M113.5 297.409V255.905H73.5V297.409C73.5 342.088 109.849 378.437 154.528 378.437V338.437C131.905 338.437 113.5 320.032 113.5 297.409Z" fill="#DCE1EB"/>
<path d="M294.479 445.861L187.057 338.437H357.473C380.095 338.437 398.5 320.032 398.5 297.409V214.591C398.5 191.968 380.095 173.563 357.473 173.563V133.563C402.152 133.563 438.5 169.912 438.5 214.591V297.409C438.5 342.088 402.151 378.437 357.473 378.437H283.625L322.765 417.577L294.479 445.861Z" fill="white"/>
<path d="M398.5 255.905V297.409C398.5 320.032 380.095 338.437 357.473 338.437H187.057L294.48 445.861L322.765 417.577L283.625 378.437H357.473C402.152 378.437 438.5 342.088 438.5 297.409V255.905H398.5Z" fill="#DCE1EB"/>
</g>
<defs>
<clipPath id="clip0">
<rect width="512" height="512" fill="white"/>
</clipPath>
</defs>
</svg>
